<svg xmlns="http://www.w3.org/2000/svg" version="1.1" xmlns:xlink="http://www.w3.org/1999/xlink" xmlns:svgjs="http://svgjs.com/svgjs" width="247" height="254"><svg width="247" height="254" viewBox="0 0 247 254" fill="none" xmlns="http://www.w3.org/2000/svg">
<circle cx="127" cy="127" r="89" transform="rotate(-45 127 127)" fill="#EBEBEB"></circle>
<path fill-rule="evenodd" clip-rule="evenodd" d="M66.9577 194.113C65.979 193.217 65.0153 192.294 64.0675 191.347C28.9203 156.2 28.9203 99.2147 64.0675 64.0675C99.2147 28.9203 156.2 28.9203 191.347 64.0675C192.295 65.0153 193.217 65.9789 194.113 66.9576L66.9577 194.113Z" fill="#091540"></path>
<path d="M149.913 71.5597L200.781 85.1896L163.543 122.427L149.913 71.5597Z" fill="#1400FF"></path>
<rect x="55.5822" y="165.891" width="46.0674" height="46.0674" transform="rotate(-45 55.5822 165.891)" fill="#FF0000"></rect>
<circle cx="128.549" cy="125.498" r="23.0337" transform="rotate(-45 128.549 125.498)" fill="#FFE500"></circle>
<path d="M65.755 143.381C64.4214 144.714 63.0552 145.321 61.6566 145.202C60.2579 145.061 58.8809 144.313 57.5257 142.958C56.4197 141.852 55.5361 140.719 54.8747 139.559C54.2133 138.398 53.7851 137.265 53.5899 136.16C53.3947 135.054 53.4381 134.002 53.72 133.004C54.0127 131.996 54.5603 131.091 55.3626 130.288C55.9915 129.66 56.6149 129.199 57.2329 128.906C57.8618 128.602 58.4744 128.445 59.0707 128.434C59.667 128.424 60.2471 128.548 60.8109 128.808C61.3855 129.058 61.9331 129.41 62.4535 129.866L60.5994 132.663C60.3067 132.414 60.0194 132.202 59.7375 132.029C59.4664 131.844 59.1899 131.73 58.908 131.687C58.637 131.633 58.3605 131.66 58.0786 131.768C57.7967 131.855 57.5094 132.045 57.2166 132.338C56.5444 133.01 56.2951 133.79 56.4685 134.68C56.642 135.569 57.1082 136.544 57.8672 137.607L59.3472 139.672C59.5098 139.9 59.6724 140.128 59.8351 140.355C60.0085 140.572 60.2254 140.811 60.4856 141.071C61.0602 141.646 61.6349 141.971 62.2095 142.047C62.7842 142.123 63.3697 141.863 63.966 141.266C64.2262 141.006 64.4159 140.719 64.5352 140.404C64.6436 140.079 64.6978 139.743 64.6978 139.396C64.6978 139.049 64.6545 138.691 64.5677 138.323C64.4702 137.943 64.34 137.564 64.1774 137.184L66.8609 135.737C67.4789 137.244 67.7228 138.626 67.5927 139.884C67.4626 141.12 66.85 142.285 65.755 143.381ZM72.2865 126.928L69.3591 129.856L73.3274 135.418L70.9204 137.825L61.4551 124.586L63.862 122.179L67.7165 127.563L70.6439 124.635L66.7895 119.252L69.1965 116.845L78.6618 130.083L76.2548 132.49L72.2865 126.928ZM85.9903 122.755L84.3151 120.429L84.2338 120.511C84.3964 120.998 84.5211 121.47 84.6079 121.925C84.6946 122.359 84.7217 122.787 84.6892 123.21C84.6675 123.622 84.5699 124.023 84.3964 124.414C84.2338 124.793 83.9736 125.162 83.6158 125.52C83.1713 125.964 82.7159 126.268 82.2497 126.43C81.7943 126.582 81.3281 126.615 80.851 126.528C80.3631 126.43 79.8698 126.23 79.371 125.926C78.8831 125.612 78.3952 125.211 77.9073 124.723C77.0725 123.888 76.4111 123.042 75.9232 122.186C75.4244 121.318 75.1046 120.478 74.9636 119.665C74.8118 118.841 74.839 118.066 75.045 117.339C75.251 116.591 75.6467 115.924 76.2322 115.339C76.8936 114.677 77.5495 114.336 78.2001 114.314C78.8506 114.271 79.512 114.466 80.1842 114.9L80.2981 114.786L78.997 112.964L81.3714 110.59L88.3647 120.38L85.9903 122.755ZM82.8351 122.625C83.1279 122.332 83.3176 122.001 83.4044 121.633C83.4911 121.264 83.5074 120.857 83.4532 120.413C83.4315 120.131 83.3664 119.773 83.258 119.34C83.1387 118.895 82.9327 118.472 82.64 118.071L81.5178 116.493C81.1492 115.973 80.7372 115.702 80.2818 115.68C79.8373 115.648 79.3548 115.892 78.8343 116.412C78.2489 116.998 77.9724 117.621 78.0049 118.282C78.0266 118.933 78.3031 119.632 78.8343 120.38L79.6475 121.519C79.7234 121.638 79.821 121.768 79.9403 121.909C80.0487 122.039 80.1734 122.175 80.3143 122.316C80.7263 122.706 81.1438 122.961 81.5666 123.08C82.0003 123.189 82.4231 123.037 82.8351 122.625ZM83.4468 108.514L85.8213 106.14L87.4964 108.466L87.5777 108.384C87.4151 107.896 87.2904 107.436 87.2037 107.002C87.1169 106.547 87.0844 106.113 87.1061 105.701C87.1386 105.278 87.2362 104.877 87.3988 104.497C87.5723 104.107 87.8379 103.733 88.1957 103.375C88.6403 102.931 89.0902 102.632 89.5456 102.481C90.0118 102.318 90.4889 102.286 90.9768 102.383C91.4538 102.47 91.9363 102.67 92.4242 102.985C92.923 103.288 93.4163 103.684 93.9042 104.172C94.7391 105.007 95.4059 105.858 95.9046 106.725C96.3925 107.582 96.7124 108.422 96.8642 109.246C97.0051 110.059 96.9726 110.84 96.7666 111.588C96.5606 112.315 96.1648 112.971 95.5793 113.556C94.918 114.217 94.262 114.57 93.6115 114.613C92.9609 114.635 92.2995 114.429 91.6273 113.995L91.5135 114.109L95.5143 119.736L93.1398 122.111L83.4468 108.514ZM92.9772 112.483C93.5627 111.897 93.8446 111.279 93.8229 110.629C93.7904 109.967 93.5085 109.263 92.9772 108.514L92.164 107.376C92.0881 107.257 91.996 107.132 91.8875 107.002C91.7683 106.861 91.6382 106.72 91.4972 106.579C91.0852 106.189 90.6624 105.939 90.2287 105.831C89.8058 105.712 89.3884 105.858 88.9764 106.27C88.6836 106.563 88.4939 106.894 88.4072 107.262C88.3204 107.631 88.3042 108.037 88.3584 108.482C88.3801 108.764 88.4505 109.127 88.5698 109.572C88.6782 110.005 88.8788 110.423 89.1715 110.824L90.2937 112.401C90.6624 112.922 91.0689 113.198 91.5135 113.231C91.9689 113.253 92.4568 113.003 92.9772 112.483ZM104.241 104.894C103.396 105.74 102.55 106.358 101.704 106.748C100.859 107.117 100.073 107.22 99.3461 107.057L99.3624 104.406C99.937 104.504 100.517 104.433 101.103 104.195C101.688 103.935 102.23 103.555 102.729 103.056C103.217 102.568 103.526 102.108 103.656 101.674C103.786 101.219 103.699 100.839 103.396 100.535C103.168 100.308 102.924 100.226 102.664 100.291C102.393 100.346 102.105 100.47 101.802 100.666L100.338 101.609C99.9587 101.858 99.5738 102.07 99.1835 102.243C98.804 102.406 98.4245 102.503 98.045 102.536C97.6547 102.558 97.2698 102.498 96.8903 102.357C96.5217 102.205 96.1531 101.945 95.7844 101.576C95.3182 101.11 94.9984 100.606 94.8249 100.064C94.6514 99.5 94.6134 98.9308 94.711 98.3561C94.8086 97.7598 95.0309 97.1689 95.3778 96.5834C95.7139 95.9871 96.1531 95.4179 96.6952 94.8758C97.4433 94.1276 98.2239 93.5638 99.0371 93.1844C99.8394 92.794 100.566 92.6422 101.216 92.729L101.249 95.3637C100.826 95.3095 100.349 95.3853 99.8178 95.5914C99.2865 95.7974 98.7823 96.1389 98.3053 96.6159C97.8824 97.0388 97.6168 97.4562 97.5083 97.8682C97.4108 98.2694 97.5138 98.6218 97.8173 98.9254C98.045 99.153 98.2781 99.2452 98.5167 99.2018C98.7552 99.1368 99.0317 99.0013 99.3461 98.7953L100.875 97.8194C101.731 97.2665 102.528 96.9575 103.266 96.8924C104.003 96.8274 104.713 97.1364 105.396 97.8194C105.862 98.2857 106.182 98.8007 106.356 99.3645C106.518 99.9174 106.551 100.503 106.453 101.121C106.345 101.728 106.106 102.357 105.738 103.007C105.369 103.636 104.87 104.265 104.241 104.894ZM114.514 94.6219C113.18 95.9555 111.814 96.5627 110.415 96.4434C109.017 96.3025 107.64 95.5543 106.284 94.199C105.178 93.0931 104.295 91.9601 103.633 90.8C102.972 89.6399 102.544 88.5068 102.349 87.4009C102.153 86.295 102.197 85.2433 102.479 84.2458C102.771 83.2375 103.319 82.3321 104.121 81.5298C104.75 80.901 105.374 80.4402 105.992 80.1474C106.62 79.8438 107.233 79.6866 107.829 79.6758C108.426 79.6649 109.006 79.7896 109.569 80.0498C110.144 80.2992 110.692 80.6516 111.212 81.107L109.358 83.9043C109.065 83.6549 108.778 83.4435 108.496 83.27C108.225 83.0857 107.949 82.9718 107.667 82.9285C107.396 82.8743 107.119 82.9014 106.837 83.0098C106.555 83.0965 106.268 83.2863 105.975 83.579C105.303 84.2512 105.054 85.0319 105.227 85.9209C105.401 86.81 105.867 87.7858 106.626 88.8484L108.106 90.9138C108.268 91.1415 108.431 91.3692 108.594 91.5969C108.767 91.8137 108.984 92.0523 109.244 92.3125C109.819 92.8871 110.393 93.2124 110.968 93.2883C111.543 93.3642 112.128 93.104 112.725 92.5076C112.985 92.2474 113.175 91.9601 113.294 91.6457C113.402 91.3204 113.456 90.9843 113.456 90.6374C113.456 90.2904 113.413 89.9326 113.326 89.564C113.229 89.1845 113.099 88.805 112.936 88.4255L115.619 86.9781C116.237 88.4852 116.481 89.8675 116.351 91.1253C116.221 92.3613 115.609 93.5268 114.514 94.6219ZM121.045 78.1696L118.118 81.0971L122.086 86.6592L119.679 89.0661L110.214 75.8277L112.621 73.4207L116.475 78.8039L119.403 75.8765L115.548 70.4933L117.955 68.0863L127.42 81.3247L125.013 83.7317L121.045 78.1696ZM134.749 73.9963L133.074 71.6706L132.992 71.7519C133.155 72.2398 133.28 72.7115 133.366 73.1668C133.453 73.6005 133.48 74.0288 133.448 74.4517C133.426 74.8637 133.329 75.2648 133.155 75.6552C132.992 76.0346 132.732 76.4033 132.374 76.7611C131.93 77.2056 131.474 77.5092 131.008 77.6718C130.553 77.8236 130.087 77.8561 129.61 77.7694C129.122 77.6718 128.628 77.4712 128.13 77.1677C127.642 76.8532 127.154 76.4521 126.666 75.9642C125.831 75.1293 125.17 74.2836 124.682 73.4271C124.183 72.5597 123.863 71.7194 123.722 70.9062C123.57 70.0822 123.598 69.307 123.804 68.5805C124.01 67.8324 124.405 67.1656 124.991 66.5801C125.652 65.9188 126.308 65.5772 126.959 65.5555C127.609 65.5122 128.271 65.7073 128.943 66.141L129.057 66.0272L127.756 64.2057L130.13 61.8312L137.123 71.6218L134.749 73.9963ZM131.594 73.8662C131.886 73.5734 132.076 73.2427 132.163 72.8741C132.25 72.5055 132.266 72.0989 132.212 71.6543C132.19 71.3724 132.125 71.0146 132.017 70.581C131.897 70.1364 131.691 69.7136 131.399 69.3124L130.276 67.7348C129.908 67.2144 129.496 66.9434 129.04 66.9217C128.596 66.8891 128.113 67.1331 127.593 67.6535C127.007 68.239 126.731 68.8624 126.764 69.5238C126.785 70.1744 127.062 70.8737 127.593 71.6218L128.406 72.7603C128.482 72.8795 128.58 73.0096 128.699 73.1506C128.807 73.2807 128.932 73.4162 129.073 73.5572C129.485 73.9475 129.902 74.2023 130.325 74.3215C130.759 74.43 131.182 74.2782 131.594 73.8662ZM143.574 65.5619C142.858 66.2775 142.142 66.6136 141.427 66.5702C140.722 66.516 140.055 66.1745 139.426 65.5456C139.275 65.3938 139.128 65.2366 138.987 65.074C138.846 64.8897 138.673 64.6511 138.467 64.3584L135.491 60.1787L133.344 62.3255L131.799 60.1624L133.149 58.8126C133.496 58.4656 133.685 58.1349 133.718 57.8205C133.761 57.4952 133.626 57.1212 133.311 56.6983L131.652 54.3889L133.864 52.1771L136.336 55.6249L139.622 52.3397L141.167 54.5027L137.881 57.788L141.785 63.2525L142.224 63.0411L142.76 58.5036L145.265 58.6662L145.135 60.4877C145.081 61.1274 145.026 61.702 144.972 62.2116C144.907 62.7104 144.82 63.1657 144.712 63.5778C144.604 63.9681 144.457 64.3205 144.273 64.6349C144.099 64.9601 143.866 65.2692 143.574 65.5619Z" fill="#EBEBEB"></path>
<path d="M191.781 112.741C193.114 111.407 194.48 110.8 195.879 110.919C197.278 111.06 198.655 111.808 200.01 113.164C201.116 114.27 201.999 115.403 202.661 116.563C203.322 117.723 203.75 118.856 203.946 119.962C204.141 121.068 204.097 122.119 203.816 123.117C203.523 124.125 202.975 125.031 202.173 125.833C201.544 126.462 200.921 126.923 200.303 127.215C199.674 127.519 199.061 127.676 198.465 127.687C197.869 127.698 197.288 127.573 196.725 127.313C196.15 127.063 195.602 126.711 195.082 126.256L196.936 123.458C197.229 123.708 197.516 123.919 197.798 124.093C198.069 124.277 198.346 124.391 198.627 124.434C198.899 124.488 199.175 124.461 199.457 124.353C199.739 124.266 200.026 124.076 200.319 123.784C200.991 123.111 201.24 122.331 201.067 121.442C200.894 120.553 200.427 119.577 199.668 118.514L198.188 116.449C198.026 116.221 197.863 115.993 197.7 115.766C197.527 115.549 197.31 115.31 197.05 115.05C196.475 114.476 195.901 114.15 195.326 114.074C194.751 113.998 194.166 114.259 193.57 114.855C193.309 115.115 193.12 115.403 193 115.717C192.892 116.042 192.838 116.378 192.838 116.725C192.838 117.072 192.881 117.43 192.968 117.799C193.065 118.178 193.195 118.558 193.358 118.937L190.675 120.385C190.057 118.878 189.813 117.495 189.943 116.237C190.073 115.001 190.685 113.836 191.781 112.741ZM185.249 129.193L188.176 126.266L184.208 120.704L186.615 118.297L196.08 131.535L193.673 133.942L189.819 128.559L186.892 131.486L190.746 136.869L188.339 139.276L178.874 126.038L181.281 123.631L185.249 129.193ZM171.545 133.366L173.22 135.692L173.302 135.611C173.139 135.123 173.014 134.651 172.928 134.196C172.841 133.762 172.814 133.334 172.846 132.911C172.868 132.499 172.966 132.098 173.139 131.708C173.302 131.328 173.562 130.959 173.92 130.602C174.364 130.157 174.82 129.853 175.286 129.691C175.741 129.539 176.207 129.507 176.685 129.593C177.172 129.691 177.666 129.891 178.164 130.195C178.652 130.509 179.14 130.911 179.628 131.399C180.463 132.233 181.124 133.079 181.612 133.936C182.111 134.803 182.431 135.643 182.572 136.456C182.724 137.28 182.697 138.056 182.491 138.782C182.285 139.53 181.889 140.197 181.303 140.783C180.642 141.444 179.986 141.785 179.335 141.807C178.685 141.85 178.024 141.655 177.351 141.222L177.237 141.335L178.539 143.157L176.164 145.531L169.171 135.741L171.545 133.366ZM174.7 133.496C174.408 133.789 174.218 134.12 174.131 134.489C174.044 134.857 174.028 135.264 174.082 135.708C174.104 135.99 174.169 136.348 174.278 136.782C174.397 137.226 174.603 137.649 174.896 138.05L176.018 139.628C176.386 140.148 176.798 140.419 177.254 140.441C177.698 140.474 178.181 140.23 178.701 139.709C179.287 139.124 179.563 138.5 179.531 137.839C179.509 137.188 179.232 136.489 178.701 135.741L177.888 134.602C177.812 134.483 177.715 134.353 177.595 134.212C177.487 134.082 177.362 133.946 177.221 133.806C176.809 133.415 176.392 133.16 175.969 133.041C175.535 132.933 175.112 133.084 174.7 133.496ZM174.089 147.607L171.714 149.981L170.039 147.656L169.958 147.737C170.12 148.225 170.245 148.686 170.332 149.119C170.419 149.575 170.451 150.008 170.429 150.42C170.397 150.843 170.299 151.244 170.137 151.624C169.963 152.014 169.698 152.388 169.34 152.746C168.895 153.191 168.445 153.489 167.99 153.641C167.524 153.803 167.047 153.836 166.559 153.738C166.082 153.651 165.599 153.451 165.111 153.136C164.613 152.833 164.119 152.437 163.631 151.949C162.796 151.114 162.13 150.263 161.631 149.396C161.143 148.539 160.823 147.699 160.671 146.875C160.53 146.062 160.563 145.281 160.769 144.533C160.975 143.807 161.371 143.151 161.956 142.565C162.618 141.904 163.274 141.551 163.924 141.508C164.575 141.486 165.236 141.692 165.908 142.126L166.022 142.012L162.021 136.385L164.396 134.011L174.089 147.607ZM164.558 143.639C163.973 144.224 163.691 144.842 163.713 145.493C163.745 146.154 164.027 146.859 164.558 147.607L165.371 148.745C165.447 148.865 165.54 148.989 165.648 149.119C165.767 149.26 165.897 149.401 166.038 149.542C166.45 149.932 166.873 150.182 167.307 150.29C167.73 150.41 168.147 150.263 168.559 149.851C168.852 149.558 169.042 149.228 169.128 148.859C169.215 148.49 169.231 148.084 169.177 147.639C169.155 147.357 169.085 146.994 168.966 146.55C168.857 146.116 168.657 145.699 168.364 145.297L167.242 143.72C166.873 143.199 166.467 142.923 166.022 142.89C165.567 142.869 165.079 143.118 164.558 143.639ZM153.294 151.227C154.14 150.382 154.986 149.764 155.831 149.373C156.677 149.005 157.463 148.902 158.189 149.064L158.173 151.715C157.598 151.618 157.018 151.688 156.433 151.927C155.847 152.187 155.305 152.566 154.807 153.065C154.319 153.553 154.01 154.014 153.88 154.447C153.749 154.903 153.836 155.282 154.14 155.586C154.367 155.814 154.611 155.895 154.872 155.83C155.143 155.776 155.43 155.651 155.734 155.456L157.197 154.512C157.577 154.263 157.962 154.052 158.352 153.878C158.732 153.716 159.111 153.618 159.49 153.585C159.881 153.564 160.266 153.623 160.645 153.764C161.014 153.916 161.382 154.176 161.751 154.545C162.217 155.011 162.537 155.515 162.711 156.057C162.884 156.621 162.922 157.19 162.824 157.765C162.727 158.361 162.505 158.952 162.158 159.538C161.822 160.134 161.382 160.703 160.84 161.246C160.092 161.994 159.312 162.557 158.498 162.937C157.696 163.327 156.97 163.479 156.319 163.392L156.287 160.758C156.709 160.812 157.186 160.736 157.718 160.53C158.249 160.324 158.753 159.982 159.23 159.505C159.653 159.082 159.919 158.665 160.027 158.253C160.125 157.852 160.022 157.499 159.718 157.196C159.49 156.968 159.257 156.876 159.019 156.919C158.78 156.984 158.504 157.12 158.189 157.326L156.661 158.302C155.804 158.855 155.007 159.164 154.27 159.229C153.533 159.294 152.822 158.985 152.139 158.302C151.673 157.836 151.353 157.321 151.18 156.757C151.017 156.204 150.985 155.618 151.082 155C151.191 154.393 151.429 153.764 151.798 153.114C152.167 152.485 152.665 151.856 153.294 151.227ZM143.022 161.499C144.356 160.166 145.722 159.559 147.12 159.678C148.519 159.819 149.896 160.567 151.251 161.922C152.357 163.028 153.241 164.161 153.902 165.321C154.564 166.481 154.992 167.614 155.187 168.72C155.382 169.826 155.339 170.878 155.057 171.875C154.764 172.884 154.217 173.789 153.414 174.591C152.785 175.22 152.162 175.681 151.544 175.974C150.915 176.277 150.303 176.435 149.706 176.445C149.11 176.456 148.53 176.332 147.966 176.071C147.391 175.822 146.844 175.47 146.323 175.014L148.177 172.217C148.47 172.466 148.758 172.678 149.039 172.851C149.31 173.036 149.587 173.149 149.869 173.193C150.14 173.247 150.416 173.22 150.698 173.111C150.98 173.025 151.268 172.835 151.56 172.542C152.232 171.87 152.482 171.089 152.308 170.2C152.135 169.311 151.669 168.335 150.91 167.273L149.43 165.207C149.267 164.98 149.104 164.752 148.942 164.524C148.768 164.308 148.552 164.069 148.291 163.809C147.717 163.234 147.142 162.909 146.567 162.833C145.993 162.757 145.407 163.017 144.811 163.614C144.551 163.874 144.361 164.161 144.242 164.476C144.133 164.801 144.079 165.137 144.079 165.484C144.079 165.831 144.122 166.189 144.209 166.557C144.307 166.937 144.437 167.316 144.6 167.696L141.916 169.143C141.298 167.636 141.054 166.254 141.184 164.996C141.314 163.76 141.927 162.594 143.022 161.499ZM136.49 177.952L139.418 175.024L135.45 169.462L137.857 167.055L147.322 180.294L144.915 182.701L141.06 177.317L138.133 180.245L141.987 185.628L139.58 188.035L130.115 174.797L132.522 172.39L136.49 177.952ZM122.787 182.125L124.462 184.451L124.543 184.369C124.38 183.881 124.256 183.41 124.169 182.954C124.082 182.521 124.055 182.092 124.088 181.67C124.109 181.258 124.207 180.856 124.38 180.466C124.543 180.087 124.803 179.718 125.161 179.36C125.606 178.916 126.061 178.612 126.527 178.449C126.983 178.298 127.449 178.265 127.926 178.352C128.414 178.449 128.907 178.65 129.406 178.954C129.894 179.268 130.382 179.669 130.87 180.157C131.704 180.992 132.366 181.838 132.854 182.694C133.352 183.562 133.672 184.402 133.813 185.215C133.965 186.039 133.938 186.814 133.732 187.541C133.526 188.289 133.13 188.956 132.545 189.541C131.883 190.203 131.227 190.544 130.577 190.566C129.926 190.609 129.265 190.414 128.593 189.98L128.479 190.094L129.78 191.916L127.405 194.29L120.412 184.499L122.787 182.125ZM125.942 182.255C125.649 182.548 125.459 182.879 125.373 183.247C125.286 183.616 125.27 184.022 125.324 184.467C125.345 184.749 125.41 185.107 125.519 185.54C125.638 185.985 125.844 186.408 126.137 186.809L127.259 188.386C127.628 188.907 128.04 189.178 128.495 189.2C128.94 189.232 129.422 188.988 129.943 188.468C130.528 187.882 130.805 187.259 130.772 186.597C130.75 185.947 130.474 185.248 129.943 184.499L129.129 183.361C129.054 183.242 128.956 183.112 128.837 182.971C128.728 182.841 128.604 182.705 128.463 182.564C128.051 182.174 127.633 181.919 127.21 181.8C126.777 181.691 126.354 181.843 125.942 182.255ZM113.962 190.559C114.678 189.844 115.393 189.508 116.109 189.551C116.813 189.605 117.48 189.947 118.109 190.576C118.261 190.727 118.407 190.885 118.548 191.047C118.689 191.232 118.863 191.47 119.069 191.763L122.045 195.943L124.192 193.796L125.737 195.959L124.387 197.309C124.04 197.656 123.85 197.986 123.818 198.301C123.774 198.626 123.91 199 124.224 199.423L125.883 201.732L123.671 203.944L121.199 200.496L117.914 203.782L116.369 201.619L119.654 198.333L115.751 192.869L115.312 193.08L114.775 197.618L112.271 197.455L112.401 195.634C112.455 194.994 112.509 194.419 112.563 193.91C112.628 193.411 112.715 192.956 112.824 192.544C112.932 192.153 113.078 191.801 113.263 191.486C113.436 191.161 113.669 190.852 113.962 190.559Z" fill="black"></path>
</svg><style>@media (prefers-color-scheme: light) { :root { filter: none; } }
</style></svg>