<?xml version="1.0" encoding="utf-8"?>
<!-- Generator: Adobe Illustrator 23.0.1, SVG Export Plug-In . SVG Version: 6.00 Build 0)  -->
<svg version="1.1" id="Layer_1" xmlns="http://www.w3.org/2000/svg" xmlns:xlink="http://www.w3.org/1999/xlink" x="0px" y="0px"
	 viewBox="0 0 1024 1024" style="enable-background:new 0 0 1024 1024;" xml:space="preserve">
<style type="text/css">
	.st0{fill:#FFFFFF;}
</style>
<rect class="st0" width="1024" height="1024"/>
<g>
	<path d="M512,0L512,0C350.07,0,218.8,131.27,218.8,293.2v511.34c0,31.35,25.42,56.77,56.77,56.77c31.35,0,56.77-25.42,56.77-56.77
		v56.77v101.25c0,33.93,27.51,61.44,61.44,61.44c33.93,0,61.44-27.51,61.44-61.44V861.31v-56.77c0,31.35,25.42,56.77,56.77,56.77
		c31.35,0,56.77-25.42,56.77-56.77v56.69c0,33.93,27.51,61.44,61.44,61.44c33.93,0,61.44-27.51,61.44-61.44v-56.69
		c0,31.35,25.42,56.77,56.77,56.77c31.35,0,56.77-25.42,56.77-56.77V293.2C805.2,131.27,673.93,0,512,0z M337.82,330.34
		c0-33.04,26.79-59.83,59.83-59.83s59.83,26.79,59.83,59.83c0,33.04-26.79,59.83-59.83,59.83S337.82,363.38,337.82,330.34z
		 M512,483.85c-40.09,0-74.17-25.01-87.98-60.21h175.95C586.17,458.84,552.09,483.85,512,483.85z M626.35,390.17
		c-33.04,0-59.83-26.78-59.83-59.83c0-33.04,26.79-59.83,59.83-59.83c33.04,0,59.83,26.79,59.83,59.83
		C686.18,363.38,659.39,390.17,626.35,390.17z"/>
	<path d="M565.89,456.78c-15.9-9.2-34.16-14.7-53.89-14.7c-19.73,0-38,5.5-53.9,14.7c14.13,13.16,33.03,21.25,53.9,21.25
		C532.86,478.04,551.76,469.95,565.89,456.78z"/>
</g>
</svg>
