<svg width="182" height="60" viewBox="0 0 182 60" fill="none" xmlns="http://www.w3.org/2000/svg">
<g filter="url(#filter0_d_202_12)">
<path fill-rule="evenodd" clip-rule="evenodd" d="M11 0C7.13401 0 4 3.13401 4 7V45C4 48.866 7.134 52 11 52H171C174.866 52 178 48.866 178 45V7C178 3.13401 174.866 0 171 0H11ZM7 8C7 5.23857 9.23858 3 12 3H170C172.761 3 175 5.23858 175 8V44C175 46.7614 172.761 49 170 49H12C9.23858 49 7 46.7614 7 44V8ZM13 5C10.7909 5 9 6.79086 9 9V43C9 45.2091 10.7909 47 13 47H169C171.209 47 173 45.2091 173 43V9C173 6.79086 171.209 5 169 5H13ZM24.2622 22.616C25.3182 22.248 26.2302 21.78 26.9982 21.212L26.1462 19.832C24.6182 21 22.8022 21.584 20.6982 21.584C19.9382 21.584 19.2422 21.476 18.6102 21.26C17.9862 21.036 17.4902 20.72 17.1222 20.312C16.7542 19.904 16.5702 19.428 16.5702 18.884C16.5702 18.364 16.7262 17.896 17.0382 17.48C17.3582 17.056 17.8142 16.724 18.4062 16.484C19.0062 16.244 19.7022 16.124 20.4942 16.124C21.5582 16.124 22.5222 16.284 23.3862 16.604C24.2502 16.924 24.9942 17.388 25.6182 17.996L26.9022 17.744L26.8902 14.768H25.1742L25.1862 16.124C24.5542 15.628 23.8382 15.252 23.0382 14.996C22.2462 14.732 21.3982 14.6 20.4942 14.6C19.3822 14.6 18.3742 14.772 17.4702 15.116C16.5662 15.452 15.8502 15.944 15.3222 16.592C14.7942 17.24 14.5302 18.012 14.5302 18.908C14.5302 19.788 14.7982 20.548 15.3342 21.188C15.8782 21.828 16.6142 22.316 17.5422 22.652C18.4782 22.988 19.5302 23.156 20.6982 23.156C22.0182 23.156 23.2062 22.976 24.2622 22.616ZM46.103 20.084V19.664H44.435V20.12C44.435 20.544 44.299 20.892 44.027 21.164C43.763 21.428 43.447 21.56 43.079 21.56C42.719 21.56 42.399 21.484 42.119 21.332C41.839 21.172 41.507 20.908 41.123 20.54C40.635 20.068 40.207 19.744 39.839 19.568H40.595C41.611 19.568 42.411 19.356 42.995 18.932C43.587 18.508 43.883 17.916 43.883 17.156C43.883 16.396 43.575 15.808 42.959 15.392C42.351 14.976 41.507 14.768 40.427 14.768H30.443V16.292H32.891V21.464H30.443V23H37.187V21.476H34.835V19.568H36.527C37.063 19.568 37.491 19.624 37.811 19.736C38.131 19.84 38.383 19.98 38.567 20.156C38.759 20.324 39.031 20.612 39.383 21.02C39.735 21.436 40.075 21.792 40.403 22.088C40.731 22.384 41.119 22.64 41.567 22.856C42.023 23.064 42.527 23.168 43.079 23.168C43.623 23.168 44.127 23.032 44.591 22.76C45.055 22.488 45.423 22.12 45.695 21.656C45.967 21.184 46.103 20.66 46.103 20.084ZM34.835 18.14V16.292H40.487C40.959 16.292 41.319 16.368 41.567 16.52C41.815 16.664 41.939 16.876 41.939 17.156C41.939 17.468 41.811 17.712 41.555 17.888C41.307 18.056 40.951 18.14 40.487 18.14H34.835ZM63.7757 23V21.476H61.5317L57.4997 16.28H59.1077V14.768H52.2917V16.28H53.9117L49.8797 21.476H47.6357V23H53.5877V21.476H51.9917L52.8677 20.252H58.5437L59.4077 21.476H57.8357V23H63.7757ZM55.7357 16.28L57.5957 18.908H53.8157L55.6877 16.28H55.7357ZM78.935 18.092V14.768H65.783V16.292H68.231V21.476H65.783V23H72.743V21.476H70.151V19.724H73.379V20.732H74.903V17.3H73.379V18.296H70.151V16.292H77.219V18.092H78.935ZM94.841 18.092V14.768H81.689V18.092H83.393V16.28H87.281V21.476H84.797V23H91.709V21.476H89.225V16.28H93.125V18.092H94.841ZM107.396 18.692C106.676 18.468 105.704 18.276 104.48 18.116C103.256 17.956 102.388 17.832 101.876 17.744C101.364 17.656 100.996 17.56 100.772 17.456C100.556 17.344 100.448 17.192 100.448 17C100.448 16.744 100.632 16.536 101 16.376C101.368 16.216 101.852 16.136 102.452 16.136C103.54 16.136 104.54 16.3 105.452 16.628C106.372 16.956 107.136 17.42 107.744 18.02L108.896 17.792V14.768H107.168V15.932C106.472 15.508 105.72 15.184 104.912 14.96C104.112 14.728 103.292 14.612 102.452 14.612C101.172 14.612 100.18 14.824 99.476 15.248C98.772 15.664 98.42 16.248 98.42 17C98.42 17.52 98.576 17.952 98.888 18.296C99.2 18.64 99.696 18.924 100.376 19.148C101.056 19.372 101.972 19.556 103.124 19.7C104.452 19.868 105.384 19.996 105.92 20.084C106.464 20.172 106.852 20.272 107.084 20.384C107.324 20.496 107.444 20.648 107.444 20.84C107.444 21.104 107.288 21.312 106.976 21.464C106.664 21.608 106.212 21.68 105.62 21.68C104.516 21.68 103.44 21.508 102.392 21.164C101.352 20.812 100.42 20.312 99.596 19.664L98.384 19.904V23H100.136V21.644C100.976 22.14 101.864 22.52 102.8 22.784C103.744 23.04 104.684 23.168 105.62 23.168C106.828 23.168 107.772 22.96 108.452 22.544C109.132 22.128 109.472 21.56 109.472 20.84C109.472 20.32 109.304 19.888 108.968 19.544C108.64 19.2 108.116 18.916 107.396 18.692ZM131.235 21.476H128.799V16.292H131.235V14.768H126.483L122.103 20.912L117.651 14.768H112.887V16.292H115.359V21.476H112.887V23H119.163V21.476H117.183V19.52C117.183 18.896 117.091 17.964 116.907 16.724L121.503 23.012H122.559L127.215 16.664C126.983 17.864 126.867 18.816 126.867 19.52V21.476H124.899V23H131.235V21.476ZM149.524 23V21.476H147.28L143.248 16.28H144.856V14.768H138.04V16.28H139.66L135.628 21.476H133.384V23H139.336V21.476H137.74L138.616 20.252H144.292L145.156 21.476H143.584V23H149.524ZM141.484 16.28L143.344 18.908H139.564L141.436 16.28H141.484ZM165.727 16.292H168.163V14.768H161.515V16.292H163.951V20.264L155.851 14.768H151.531V16.292H153.979V21.476H151.531V23H158.503V21.476H155.851V17.096L164.683 23.084L165.727 23.072V16.292ZM47.648 35.536H48.523V34.703H46.136V35.445H46.822L45.751 37.013L44.316 34.794H43.728L42.23 37.034L41.194 35.445H41.922V34.703H39.213V35.536H40.095L41.803 38.091H42.391L43.882 35.991L45.345 38.091H45.933L47.648 35.536ZM54.8278 37.923C55.3038 37.8063 55.7098 37.657 56.0458 37.475L55.7028 36.768C55.0494 37.118 54.2841 37.293 53.4068 37.293C52.7394 37.293 52.1934 37.2137 51.7688 37.055C51.3441 36.8917 51.1201 36.67 51.0968 36.39C52.0301 36.6747 52.8561 36.817 53.5748 36.817C54.3261 36.817 54.8954 36.7307 55.2828 36.558C55.6701 36.3807 55.8638 36.1193 55.8638 35.774C55.8638 35.396 55.6304 35.109 55.1638 34.913C54.7018 34.7123 54.0671 34.612 53.2598 34.612C52.6251 34.612 52.0674 34.6867 51.5868 34.836C51.1061 34.9807 50.7328 35.1883 50.4668 35.459C50.2054 35.725 50.0748 36.0307 50.0748 36.376C50.0748 36.7587 50.2218 37.0783 50.5158 37.335C50.8098 37.5917 51.2041 37.783 51.6988 37.909C52.1934 38.035 52.7464 38.098 53.3578 38.098C53.8664 38.098 54.3564 38.0397 54.8278 37.923ZM52.2098 35.466C52.5644 35.3867 52.9494 35.347 53.3648 35.347C53.8174 35.347 54.1698 35.3843 54.4218 35.459C54.6738 35.529 54.7998 35.6293 54.7998 35.76C54.7998 35.886 54.7111 35.9723 54.5338 36.019C54.3564 36.061 54.0438 36.082 53.5958 36.082C53.2784 36.082 52.9214 36.061 52.5248 36.019C52.1281 35.9723 51.7478 35.9047 51.3838 35.816C51.5798 35.662 51.8551 35.5453 52.2098 35.466ZM68.2111 34.801C67.8657 34.675 67.4691 34.612 67.0211 34.612C66.4797 34.612 65.9664 34.7007 65.4811 34.878C64.9957 35.0507 64.4964 35.2957 63.9831 35.613V33.198H61.6171V34.031H62.9051V38H63.5071L63.8501 37.538C64.8021 37.9113 65.7447 38.098 66.6781 38.098C67.1587 38.098 67.5997 38.0233 68.0011 37.874C68.4071 37.7247 68.7267 37.5123 68.9601 37.237C69.1981 36.957 69.3171 36.6303 69.3171 36.257C69.3171 35.9023 69.2191 35.6037 69.0231 35.361C68.8271 35.1137 68.5564 34.927 68.2111 34.801ZM67.4131 37.111C67.1611 37.1857 66.8647 37.223 66.5241 37.223C66.1087 37.223 65.6771 37.1903 65.2291 37.125C64.7811 37.0597 64.3657 36.971 63.9831 36.859V36.362C64.4871 36.0913 64.9864 35.8813 65.4811 35.732C65.9757 35.5827 66.4237 35.508 66.8251 35.508C67.2684 35.508 67.6067 35.578 67.8401 35.718C68.0781 35.858 68.1971 36.0587 68.1971 36.32C68.1971 36.4927 68.1294 36.649 67.9941 36.789C67.8587 36.9243 67.6651 37.0317 67.4131 37.111ZM78.119 38.021C78.2543 37.979 78.3803 37.9207 78.497 37.846L78.245 37.111C78.1237 37.1763 78.0117 37.209 77.909 37.209C77.8064 37.209 77.72 37.1693 77.65 37.09C77.58 37.0107 77.545 36.8847 77.545 36.712V34.703H75.424V35.536H76.481V36.145C75.7344 36.775 75.018 37.09 74.332 37.09C73.464 37.09 73.03 36.6817 73.03 35.865V34.703H70.762V35.536H71.966V35.823C71.966 36.4623 72.127 37.0013 72.449 37.44C72.7757 37.874 73.317 38.091 74.073 38.091C74.857 38.091 75.6597 37.72 76.481 36.978C76.495 37.328 76.607 37.601 76.817 37.797C77.0317 37.9883 77.3024 38.084 77.629 38.084C77.825 38.084 77.9883 38.063 78.119 38.021ZM81.6229 34.045C81.7629 34.1477 81.9449 34.199 82.1689 34.199C82.4022 34.199 82.5866 34.15 82.7219 34.052C82.8619 33.9493 82.9319 33.8187 82.9319 33.66C82.9319 33.492 82.8619 33.3567 82.7219 33.254C82.5866 33.1513 82.4022 33.1 82.1689 33.1C81.9449 33.1 81.7629 33.1537 81.6229 33.261C81.4829 33.3637 81.4129 33.4967 81.4129 33.66C81.4129 33.814 81.4829 33.9423 81.6229 34.045ZM83.9609 38V37.167H82.7639V34.703H80.4049V35.536H81.6999V37.167H80.4049V38H83.9609ZM89.1816 38V37.167H87.9776V33.198H85.6256V34.031H86.9136V37.167H85.6256V38H89.1816ZM97.9603 38.021C98.0956 37.979 98.2216 37.9207 98.3383 37.846L98.0863 37.111C97.965 37.1763 97.8506 37.209 97.7433 37.209C97.636 37.209 97.5496 37.1717 97.4843 37.097C97.419 37.0177 97.3863 36.8893 97.3863 36.712V33.198H95.1043V34.031H96.3223V35.137C95.4123 34.7917 94.5093 34.619 93.6133 34.619C93.1326 34.619 92.6916 34.6937 92.2903 34.843C91.889 34.9923 91.5693 35.207 91.3313 35.487C91.098 35.7623 90.9813 36.0867 90.9813 36.46C90.9813 36.8147 91.0793 37.1157 91.2753 37.363C91.4713 37.6057 91.742 37.79 92.0873 37.916C92.4326 38.042 92.8293 38.105 93.2773 38.105C93.8233 38.105 94.339 38.0163 94.8243 37.839C95.3143 37.6617 95.816 37.4143 96.3293 37.097C96.3666 37.4143 96.488 37.6593 96.6933 37.832C96.9033 38 97.16 38.084 97.4633 38.084C97.664 38.084 97.8296 38.063 97.9603 38.021ZM92.4583 37.006C92.2203 36.8613 92.1013 36.6583 92.1013 36.397C92.1013 36.2243 92.169 36.0703 92.3043 35.935C92.4396 35.795 92.6333 35.6877 92.8853 35.613C93.1373 35.5337 93.429 35.494 93.7603 35.494C94.185 35.494 94.6236 35.5267 95.0763 35.592C95.529 35.6573 95.9443 35.7483 96.3223 35.865V36.348C95.8183 36.6233 95.3166 36.838 94.8173 36.992C94.318 37.1413 93.8676 37.216 93.4663 37.216C93.0323 37.216 92.6963 37.146 92.4583 37.006ZM110.894 34.801C110.549 34.675 110.154 34.612 109.711 34.612C109.17 34.612 108.656 34.7007 108.171 34.878C107.686 35.0507 107.189 35.2933 106.68 35.606V34.703H104.314V35.536H105.616V38.693H104.314V39.526H107.877V38.693H106.68V37.594C107.59 37.93 108.484 38.098 109.361 38.098C109.842 38.098 110.283 38.0233 110.684 37.874C111.09 37.7247 111.41 37.5123 111.643 37.237C111.881 36.957 112 36.6303 112 36.257C112 35.907 111.902 35.6083 111.706 35.361C111.51 35.1137 111.239 34.927 110.894 34.801ZM110.096 37.111C109.849 37.1857 109.557 37.223 109.221 37.223C108.806 37.223 108.374 37.1903 107.926 37.125C107.478 37.0597 107.063 36.971 106.68 36.859V36.362C107.184 36.0913 107.681 35.8813 108.171 35.732C108.666 35.5827 109.114 35.508 109.515 35.508C109.958 35.508 110.297 35.578 110.53 35.718C110.763 35.858 110.88 36.0587 110.88 36.32C110.88 36.4927 110.812 36.649 110.677 36.789C110.542 36.9243 110.348 37.0317 110.096 37.111ZM119.829 36.355V34.626L119.36 34.619C118.884 34.619 118.391 34.7333 117.883 34.962C117.374 35.1907 116.872 35.5057 116.378 35.907V34.703H114.019V35.536H115.314V37.167H114.019V38H117.575V37.167H116.378V36.621C116.835 36.3037 117.285 36.061 117.729 35.893C118.177 35.7203 118.573 35.627 118.919 35.613V36.355H119.829ZM123.288 34.045C123.428 34.1477 123.61 34.199 123.834 34.199C124.068 34.199 124.252 34.15 124.387 34.052C124.527 33.9493 124.597 33.8187 124.597 33.66C124.597 33.492 124.527 33.3567 124.387 33.254C124.252 33.1513 124.068 33.1 123.834 33.1C123.61 33.1 123.428 33.1537 123.288 33.261C123.148 33.3637 123.078 33.4967 123.078 33.66C123.078 33.814 123.148 33.9423 123.288 34.045ZM125.626 38V37.167H124.429V34.703H122.07V35.536H123.365V37.167H122.07V38H125.626ZM134.404 38.021C134.539 37.979 134.665 37.9207 134.782 37.846L134.53 37.111C134.409 37.1763 134.294 37.209 134.187 37.209C134.08 37.209 133.993 37.1717 133.928 37.097C133.863 37.0177 133.83 36.8893 133.83 36.712V33.198H131.548V34.031H132.766V35.137C131.856 34.7917 130.953 34.619 130.057 34.619C129.576 34.619 129.135 34.6937 128.734 34.843C128.333 34.9923 128.013 35.207 127.775 35.487C127.542 35.7623 127.425 36.0867 127.425 36.46C127.425 36.8147 127.523 37.1157 127.719 37.363C127.915 37.6057 128.186 37.79 128.531 37.916C128.876 38.042 129.273 38.105 129.721 38.105C130.267 38.105 130.783 38.0163 131.268 37.839C131.758 37.6617 132.26 37.4143 132.773 37.097C132.81 37.4143 132.932 37.6593 133.137 37.832C133.347 38 133.604 38.084 133.907 38.084C134.108 38.084 134.273 38.063 134.404 38.021ZM128.902 37.006C128.664 36.8613 128.545 36.6583 128.545 36.397C128.545 36.2243 128.613 36.0703 128.748 35.935C128.883 35.795 129.077 35.6877 129.329 35.613C129.581 35.5337 129.873 35.494 130.204 35.494C130.629 35.494 131.067 35.5267 131.52 35.592C131.973 35.6573 132.388 35.7483 132.766 35.865V36.348C132.262 36.6233 131.76 36.838 131.261 36.992C130.762 37.1413 130.311 37.216 129.91 37.216C129.476 37.216 129.14 37.146 128.902 37.006ZM141.248 37.923C141.724 37.8063 142.13 37.657 142.466 37.475L142.123 36.768C141.47 37.118 140.705 37.293 139.827 37.293C139.16 37.293 138.614 37.2137 138.189 37.055C137.765 36.8917 137.541 36.67 137.517 36.39C138.451 36.6747 139.277 36.817 139.995 36.817C140.747 36.817 141.316 36.7307 141.703 36.558C142.091 36.3807 142.284 36.1193 142.284 35.774C142.284 35.396 142.051 35.109 141.584 34.913C141.122 34.7123 140.488 34.612 139.68 34.612C139.046 34.612 138.488 34.6867 138.007 34.836C137.527 34.9807 137.153 35.1883 136.887 35.459C136.626 35.725 136.495 36.0307 136.495 36.376C136.495 36.7587 136.642 37.0783 136.936 37.335C137.23 37.5917 137.625 37.783 138.119 37.909C138.614 38.035 139.167 38.098 139.778 38.098C140.287 38.098 140.777 38.0397 141.248 37.923ZM138.63 35.466C138.985 35.3867 139.37 35.347 139.785 35.347C140.238 35.347 140.59 35.3843 140.842 35.459C141.094 35.529 141.22 35.6293 141.22 35.76C141.22 35.886 141.132 35.9723 140.954 36.019C140.777 36.061 140.464 36.082 140.016 36.082C139.699 36.082 139.342 36.061 138.945 36.019C138.549 35.9723 138.168 35.9047 137.804 35.816C138 35.662 138.276 35.5453 138.63 35.466Z" fill="#F83737"/>
</g>
<defs>
<filter id="filter0_d_202_12" x="0" y="0" width="182" height="60" filterUnits="userSpaceOnUse" color-interpolation-filters="sRGB">
<feFlood flood-opacity="0" result="BackgroundImageFix"/>
<feColorMatrix in="SourceAlpha" type="matrix" values="0 0 0 0 0 0 0 0 0 0 0 0 0 0 0 0 0 0 127 0" result="hardAlpha"/>
<feOffset dy="4"/>
<feGaussianBlur stdDeviation="2"/>
<feComposite in2="hardAlpha" operator="out"/>
<feColorMatrix type="matrix" values="0 0 0 0 0 0 0 0 0 0 0 0 0 0 0 0 0 0 0.25 0"/>
<feBlend mode="normal" in2="BackgroundImageFix" result="effect1_dropShadow_202_12"/>
<feBlend mode="normal" in="SourceGraphic" in2="effect1_dropShadow_202_12" result="shape"/>
</filter>
</defs>
</svg>
