<svg width="174" height="52" viewBox="0 0 174 52" fill="none" xmlns="http://www.w3.org/2000/svg">
<path fill-rule="evenodd" clip-rule="evenodd" d="M7 0C3.13401 0 0 3.13401 0 7V45C0 48.866 3.134 52 7 52H167C170.866 52 174 48.866 174 45V7C174 3.13401 170.866 0 167 0H7ZM3 8C3 5.23857 5.23858 3 8 3H166C168.761 3 171 5.23858 171 8V44C171 46.7614 168.761 49 166 49H8C5.23858 49 3 46.7614 3 44V8ZM9 5C6.79086 5 5 6.79086 5 9V43C5 45.2091 6.79086 47 9 47H165C167.209 47 169 45.2091 169 43V9C169 6.79086 167.209 5 165 5H9ZM20.2622 22.616C21.3182 22.248 22.2302 21.78 22.9982 21.212L22.1462 19.832C20.6182 21 18.8022 21.584 16.6982 21.584C15.9382 21.584 15.2422 21.476 14.6102 21.26C13.9862 21.036 13.4902 20.72 13.1222 20.312C12.7542 19.904 12.5702 19.428 12.5702 18.884C12.5702 18.364 12.7262 17.896 13.0382 17.48C13.3582 17.056 13.8142 16.724 14.4062 16.484C15.0062 16.244 15.7022 16.124 16.4942 16.124C17.5582 16.124 18.5222 16.284 19.3862 16.604C20.2502 16.924 20.9942 17.388 21.6182 17.996L22.9022 17.744L22.8902 14.768H21.1742L21.1862 16.124C20.5542 15.628 19.8382 15.252 19.0382 14.996C18.2462 14.732 17.3982 14.6 16.4942 14.6C15.3822 14.6 14.3742 14.772 13.4702 15.116C12.5662 15.452 11.8502 15.944 11.3222 16.592C10.7942 17.24 10.5302 18.012 10.5302 18.908C10.5302 19.788 10.7982 20.548 11.3342 21.188C11.8782 21.828 12.6142 22.316 13.5422 22.652C14.4782 22.988 15.5302 23.156 16.6982 23.156C18.0182 23.156 19.2062 22.976 20.2622 22.616ZM42.103 20.084V19.664H40.435V20.12C40.435 20.544 40.299 20.892 40.027 21.164C39.763 21.428 39.447 21.56 39.079 21.56C38.719 21.56 38.399 21.484 38.119 21.332C37.839 21.172 37.507 20.908 37.123 20.54C36.635 20.068 36.207 19.744 35.839 19.568H36.595C37.611 19.568 38.411 19.356 38.995 18.932C39.587 18.508 39.883 17.916 39.883 17.156C39.883 16.396 39.575 15.808 38.959 15.392C38.351 14.976 37.507 14.768 36.427 14.768H26.443V16.292H28.891V21.464H26.443V23H33.187V21.476H30.835V19.568H32.527C33.063 19.568 33.491 19.624 33.811 19.736C34.131 19.84 34.383 19.98 34.567 20.156C34.759 20.324 35.031 20.612 35.383 21.02C35.735 21.436 36.075 21.792 36.403 22.088C36.731 22.384 37.119 22.64 37.567 22.856C38.023 23.064 38.527 23.168 39.079 23.168C39.623 23.168 40.127 23.032 40.591 22.76C41.055 22.488 41.423 22.12 41.695 21.656C41.967 21.184 42.103 20.66 42.103 20.084ZM30.835 18.14V16.292H36.487C36.959 16.292 37.319 16.368 37.567 16.52C37.815 16.664 37.939 16.876 37.939 17.156C37.939 17.468 37.811 17.712 37.555 17.888C37.307 18.056 36.951 18.14 36.487 18.14H30.835ZM59.7757 23V21.476H57.5317L53.4997 16.28H55.1077V14.768H48.2917V16.28H49.9117L45.8797 21.476H43.6357V23H49.5877V21.476H47.9917L48.8677 20.252H54.5437L55.4077 21.476H53.8357V23H59.7757ZM51.7357 16.28L53.5957 18.908H49.8157L51.6877 16.28H51.7357ZM74.935 18.092V14.768H61.783V16.292H64.231V21.476H61.783V23H68.743V21.476H66.151V19.724H69.379V20.732H70.903V17.3H69.379V18.296H66.151V16.292H73.219V18.092H74.935ZM90.841 18.092V14.768H77.689V18.092H79.393V16.28H83.281V21.476H80.797V23H87.709V21.476H85.225V16.28H89.125V18.092H90.841ZM103.396 18.692C102.676 18.468 101.704 18.276 100.48 18.116C99.256 17.956 98.388 17.832 97.876 17.744C97.364 17.656 96.996 17.56 96.772 17.456C96.556 17.344 96.448 17.192 96.448 17C96.448 16.744 96.632 16.536 97 16.376C97.368 16.216 97.852 16.136 98.452 16.136C99.54 16.136 100.54 16.3 101.452 16.628C102.372 16.956 103.136 17.42 103.744 18.02L104.896 17.792V14.768H103.168V15.932C102.472 15.508 101.72 15.184 100.912 14.96C100.112 14.728 99.292 14.612 98.452 14.612C97.172 14.612 96.18 14.824 95.476 15.248C94.772 15.664 94.42 16.248 94.42 17C94.42 17.52 94.576 17.952 94.888 18.296C95.2 18.64 95.696 18.924 96.376 19.148C97.056 19.372 97.972 19.556 99.124 19.7C100.452 19.868 101.384 19.996 101.92 20.084C102.464 20.172 102.852 20.272 103.084 20.384C103.324 20.496 103.444 20.648 103.444 20.84C103.444 21.104 103.288 21.312 102.976 21.464C102.664 21.608 102.212 21.68 101.62 21.68C100.516 21.68 99.44 21.508 98.392 21.164C97.352 20.812 96.42 20.312 95.596 19.664L94.384 19.904V23H96.136V21.644C96.976 22.14 97.864 22.52 98.8 22.784C99.744 23.04 100.684 23.168 101.62 23.168C102.828 23.168 103.772 22.96 104.452 22.544C105.132 22.128 105.472 21.56 105.472 20.84C105.472 20.32 105.304 19.888 104.968 19.544C104.64 19.2 104.116 18.916 103.396 18.692ZM127.235 21.476H124.799V16.292H127.235V14.768H122.483L118.103 20.912L113.651 14.768H108.887V16.292H111.359V21.476H108.887V23H115.163V21.476H113.183V19.52C113.183 18.896 113.091 17.964 112.907 16.724L117.503 23.012H118.559L123.215 16.664C122.983 17.864 122.867 18.816 122.867 19.52V21.476H120.899V23H127.235V21.476ZM145.524 23V21.476H143.28L139.248 16.28H140.856V14.768H134.04V16.28H135.66L131.628 21.476H129.384V23H135.336V21.476H133.74L134.616 20.252H140.292L141.156 21.476H139.584V23H145.524ZM137.484 16.28L139.344 18.908H135.564L137.436 16.28H137.484ZM161.727 16.292H164.163V14.768H157.515V16.292H159.951V20.264L151.851 14.768H147.531V16.292H149.979V21.476H147.531V23H154.503V21.476H151.851V17.096L160.683 23.084L161.727 23.072V16.292ZM43.648 35.536H44.523V34.703H42.136V35.445H42.822L41.751 37.013L40.316 34.794H39.728L38.23 37.034L37.194 35.445H37.922V34.703H35.213V35.536H36.095L37.803 38.091H38.391L39.882 35.991L41.345 38.091H41.933L43.648 35.536ZM50.8278 37.923C51.3038 37.8063 51.7098 37.657 52.0458 37.475L51.7028 36.768C51.0494 37.118 50.2841 37.293 49.4068 37.293C48.7394 37.293 48.1934 37.2137 47.7688 37.055C47.3441 36.8917 47.1201 36.67 47.0968 36.39C48.0301 36.6747 48.8561 36.817 49.5748 36.817C50.3261 36.817 50.8954 36.7307 51.2828 36.558C51.6701 36.3807 51.8638 36.1193 51.8638 35.774C51.8638 35.396 51.6304 35.109 51.1638 34.913C50.7018 34.7123 50.0671 34.612 49.2598 34.612C48.6251 34.612 48.0674 34.6867 47.5868 34.836C47.1061 34.9807 46.7328 35.1883 46.4668 35.459C46.2054 35.725 46.0748 36.0307 46.0748 36.376C46.0748 36.7587 46.2218 37.0783 46.5158 37.335C46.8098 37.5917 47.2041 37.783 47.6988 37.909C48.1934 38.035 48.7464 38.098 49.3578 38.098C49.8664 38.098 50.3564 38.0397 50.8278 37.923ZM48.2098 35.466C48.5644 35.3867 48.9494 35.347 49.3648 35.347C49.8174 35.347 50.1698 35.3843 50.4218 35.459C50.6738 35.529 50.7998 35.6293 50.7998 35.76C50.7998 35.886 50.7111 35.9723 50.5338 36.019C50.3564 36.061 50.0438 36.082 49.5958 36.082C49.2784 36.082 48.9214 36.061 48.5248 36.019C48.1281 35.9723 47.7478 35.9047 47.3838 35.816C47.5798 35.662 47.8551 35.5453 48.2098 35.466ZM64.2111 34.801C63.8657 34.675 63.4691 34.612 63.0211 34.612C62.4797 34.612 61.9664 34.7007 61.4811 34.878C60.9957 35.0507 60.4964 35.2957 59.9831 35.613V33.198H57.6171V34.031H58.9051V38H59.5071L59.8501 37.538C60.8021 37.9113 61.7447 38.098 62.6781 38.098C63.1587 38.098 63.5997 38.0233 64.0011 37.874C64.4071 37.7247 64.7267 37.5123 64.9601 37.237C65.1981 36.957 65.3171 36.6303 65.3171 36.257C65.3171 35.9023 65.2191 35.6037 65.0231 35.361C64.8271 35.1137 64.5564 34.927 64.2111 34.801ZM63.4131 37.111C63.1611 37.1857 62.8647 37.223 62.5241 37.223C62.1087 37.223 61.6771 37.1903 61.2291 37.125C60.7811 37.0597 60.3657 36.971 59.9831 36.859V36.362C60.4871 36.0913 60.9864 35.8813 61.4811 35.732C61.9757 35.5827 62.4237 35.508 62.8251 35.508C63.2684 35.508 63.6067 35.578 63.8401 35.718C64.0781 35.858 64.1971 36.0587 64.1971 36.32C64.1971 36.4927 64.1294 36.649 63.9941 36.789C63.8587 36.9243 63.6651 37.0317 63.4131 37.111ZM74.119 38.021C74.2543 37.979 74.3803 37.9207 74.497 37.846L74.245 37.111C74.1237 37.1763 74.0117 37.209 73.909 37.209C73.8064 37.209 73.72 37.1693 73.65 37.09C73.58 37.0107 73.545 36.8847 73.545 36.712V34.703H71.424V35.536H72.481V36.145C71.7344 36.775 71.018 37.09 70.332 37.09C69.464 37.09 69.03 36.6817 69.03 35.865V34.703H66.762V35.536H67.966V35.823C67.966 36.4623 68.127 37.0013 68.449 37.44C68.7757 37.874 69.317 38.091 70.073 38.091C70.857 38.091 71.6597 37.72 72.481 36.978C72.495 37.328 72.607 37.601 72.817 37.797C73.0317 37.9883 73.3024 38.084 73.629 38.084C73.825 38.084 73.9883 38.063 74.119 38.021ZM77.6229 34.045C77.7629 34.1477 77.9449 34.199 78.1689 34.199C78.4022 34.199 78.5866 34.15 78.7219 34.052C78.8619 33.9493 78.9319 33.8187 78.9319 33.66C78.9319 33.492 78.8619 33.3567 78.7219 33.254C78.5866 33.1513 78.4022 33.1 78.1689 33.1C77.9449 33.1 77.7629 33.1537 77.6229 33.261C77.4829 33.3637 77.4129 33.4967 77.4129 33.66C77.4129 33.814 77.4829 33.9423 77.6229 34.045ZM79.9609 38V37.167H78.7639V34.703H76.4049V35.536H77.6999V37.167H76.4049V38H79.9609ZM85.1816 38V37.167H83.9776V33.198H81.6256V34.031H82.9136V37.167H81.6256V38H85.1816ZM93.9603 38.021C94.0956 37.979 94.2216 37.9207 94.3383 37.846L94.0863 37.111C93.965 37.1763 93.8506 37.209 93.7433 37.209C93.636 37.209 93.5496 37.1717 93.4843 37.097C93.419 37.0177 93.3863 36.8893 93.3863 36.712V33.198H91.1043V34.031H92.3223V35.137C91.4123 34.7917 90.5093 34.619 89.6133 34.619C89.1326 34.619 88.6916 34.6937 88.2903 34.843C87.889 34.9923 87.5693 35.207 87.3313 35.487C87.098 35.7623 86.9813 36.0867 86.9813 36.46C86.9813 36.8147 87.0793 37.1157 87.2753 37.363C87.4713 37.6057 87.742 37.79 88.0873 37.916C88.4326 38.042 88.8293 38.105 89.2773 38.105C89.8233 38.105 90.339 38.0163 90.8243 37.839C91.3143 37.6617 91.816 37.4143 92.3293 37.097C92.3666 37.4143 92.488 37.6593 92.6933 37.832C92.9033 38 93.16 38.084 93.4633 38.084C93.664 38.084 93.8296 38.063 93.9603 38.021ZM88.4583 37.006C88.2203 36.8613 88.1013 36.6583 88.1013 36.397C88.1013 36.2243 88.169 36.0703 88.3043 35.935C88.4396 35.795 88.6333 35.6877 88.8853 35.613C89.1373 35.5337 89.429 35.494 89.7603 35.494C90.185 35.494 90.6236 35.5267 91.0763 35.592C91.529 35.6573 91.9443 35.7483 92.3223 35.865V36.348C91.8183 36.6233 91.3166 36.838 90.8173 36.992C90.318 37.1413 89.8676 37.216 89.4663 37.216C89.0323 37.216 88.6963 37.146 88.4583 37.006ZM106.894 34.801C106.549 34.675 106.154 34.612 105.711 34.612C105.17 34.612 104.656 34.7007 104.171 34.878C103.686 35.0507 103.189 35.2933 102.68 35.606V34.703H100.314V35.536H101.616V38.693H100.314V39.526H103.877V38.693H102.68V37.594C103.59 37.93 104.484 38.098 105.361 38.098C105.842 38.098 106.283 38.0233 106.684 37.874C107.09 37.7247 107.41 37.5123 107.643 37.237C107.881 36.957 108 36.6303 108 36.257C108 35.907 107.902 35.6083 107.706 35.361C107.51 35.1137 107.239 34.927 106.894 34.801ZM106.096 37.111C105.849 37.1857 105.557 37.223 105.221 37.223C104.806 37.223 104.374 37.1903 103.926 37.125C103.478 37.0597 103.063 36.971 102.68 36.859V36.362C103.184 36.0913 103.681 35.8813 104.171 35.732C104.666 35.5827 105.114 35.508 105.515 35.508C105.958 35.508 106.297 35.578 106.53 35.718C106.763 35.858 106.88 36.0587 106.88 36.32C106.88 36.4927 106.812 36.649 106.677 36.789C106.542 36.9243 106.348 37.0317 106.096 37.111ZM115.829 36.355V34.626L115.36 34.619C114.884 34.619 114.391 34.7333 113.883 34.962C113.374 35.1907 112.872 35.5057 112.378 35.907V34.703H110.019V35.536H111.314V37.167H110.019V38H113.575V37.167H112.378V36.621C112.835 36.3037 113.285 36.061 113.729 35.893C114.177 35.7203 114.573 35.627 114.919 35.613V36.355H115.829ZM119.288 34.045C119.428 34.1477 119.61 34.199 119.834 34.199C120.068 34.199 120.252 34.15 120.387 34.052C120.527 33.9493 120.597 33.8187 120.597 33.66C120.597 33.492 120.527 33.3567 120.387 33.254C120.252 33.1513 120.068 33.1 119.834 33.1C119.61 33.1 119.428 33.1537 119.288 33.261C119.148 33.3637 119.078 33.4967 119.078 33.66C119.078 33.814 119.148 33.9423 119.288 34.045ZM121.626 38V37.167H120.429V34.703H118.07V35.536H119.365V37.167H118.07V38H121.626ZM130.404 38.021C130.539 37.979 130.665 37.9207 130.782 37.846L130.53 37.111C130.409 37.1763 130.294 37.209 130.187 37.209C130.08 37.209 129.993 37.1717 129.928 37.097C129.863 37.0177 129.83 36.8893 129.83 36.712V33.198H127.548V34.031H128.766V35.137C127.856 34.7917 126.953 34.619 126.057 34.619C125.576 34.619 125.135 34.6937 124.734 34.843C124.333 34.9923 124.013 35.207 123.775 35.487C123.542 35.7623 123.425 36.0867 123.425 36.46C123.425 36.8147 123.523 37.1157 123.719 37.363C123.915 37.6057 124.186 37.79 124.531 37.916C124.876 38.042 125.273 38.105 125.721 38.105C126.267 38.105 126.783 38.0163 127.268 37.839C127.758 37.6617 128.26 37.4143 128.773 37.097C128.81 37.4143 128.932 37.6593 129.137 37.832C129.347 38 129.604 38.084 129.907 38.084C130.108 38.084 130.273 38.063 130.404 38.021ZM124.902 37.006C124.664 36.8613 124.545 36.6583 124.545 36.397C124.545 36.2243 124.613 36.0703 124.748 35.935C124.883 35.795 125.077 35.6877 125.329 35.613C125.581 35.5337 125.873 35.494 126.204 35.494C126.629 35.494 127.067 35.5267 127.52 35.592C127.973 35.6573 128.388 35.7483 128.766 35.865V36.348C128.262 36.6233 127.76 36.838 127.261 36.992C126.762 37.1413 126.311 37.216 125.91 37.216C125.476 37.216 125.14 37.146 124.902 37.006ZM137.248 37.923C137.724 37.8063 138.13 37.657 138.466 37.475L138.123 36.768C137.47 37.118 136.705 37.293 135.827 37.293C135.16 37.293 134.614 37.2137 134.189 37.055C133.765 36.8917 133.541 36.67 133.517 36.39C134.451 36.6747 135.277 36.817 135.995 36.817C136.747 36.817 137.316 36.7307 137.703 36.558C138.091 36.3807 138.284 36.1193 138.284 35.774C138.284 35.396 138.051 35.109 137.584 34.913C137.122 34.7123 136.488 34.612 135.68 34.612C135.046 34.612 134.488 34.6867 134.007 34.836C133.527 34.9807 133.153 35.1883 132.887 35.459C132.626 35.725 132.495 36.0307 132.495 36.376C132.495 36.7587 132.642 37.0783 132.936 37.335C133.23 37.5917 133.625 37.783 134.119 37.909C134.614 38.035 135.167 38.098 135.778 38.098C136.287 38.098 136.777 38.0397 137.248 37.923ZM134.63 35.466C134.985 35.3867 135.37 35.347 135.785 35.347C136.238 35.347 136.59 35.3843 136.842 35.459C137.094 35.529 137.22 35.6293 137.22 35.76C137.22 35.886 137.132 35.9723 136.954 36.019C136.777 36.061 136.464 36.082 136.016 36.082C135.699 36.082 135.342 36.061 134.945 36.019C134.549 35.9723 134.168 35.9047 133.804 35.816C134 35.662 134.276 35.5453 134.63 35.466Z" fill="#F83737"/>
</svg>
